<svg id="Layer_1" data-name="Layer 1" xmlns="http://www.w3.org/2000/svg" xmlns:xlink="http://www.w3.org/1999/xlink" viewBox="0 0 890.29 205.21"><defs><style>.cls-1,.cls-2,.cls-30{fill:none;}.cls-2{clip-rule:evenodd;}.cls-3{clip-path:url(#clip-path);}.cls-4{clip-path:url(#clip-path-2);}.cls-5{fill:#010101;}.cls-6{clip-path:url(#clip-path-3);}.cls-7,.cls-9{fill:#fff;}.cls-7{opacity:0.6;}.cls-8{clip-path:url(#clip-path-5);}.cls-10{clip-path:url(#clip-path-7);}.cls-11{clip-path:url(#clip-path-9);}.cls-12{clip-path:url(#clip-path-11);}.cls-13{clip-path:url(#clip-path-13);}.cls-14{clip-path:url(#clip-path-15);}.cls-15{clip-path:url(#clip-path-17);}.cls-16{clip-path:url(#clip-path-19);}.cls-17{clip-path:url(#clip-path-21);}.cls-18{clip-path:url(#clip-path-23);}.cls-19{clip-path:url(#clip-path-25);}.cls-20{isolation:isolate;}.cls-21{clip-path:url(#clip-path-27);}.cls-22{clip-path:url(#clip-path-28);}.cls-23{clip-path:url(#clip-path-29);}.cls-24{clip-path:url(#clip-path-30);}.cls-25{clip-path:url(#clip-path-32);}.cls-26{clip-path:url(#clip-path-34);}.cls-27{clip-path:url(#clip-path-36);}.cls-28{clip-path:url(#clip-path-38);}.cls-29{clip-path:url(#clip-path-40);}.cls-30{stroke:#010101;stroke-miterlimit:10;stroke-width:2px;}.cls-31{clip-path:url(#clip-path-43);}.cls-32{clip-path:url(#clip-path-45);}</style><clipPath id="clip-path" transform="translate(13.75 14.29)"><rect class="cls-1" x="692.98" y="0.68" width="178.06" height="177.87"/></clipPath><clipPath id="clip-path-2" transform="translate(13.75 14.29)"><rect class="cls-1" x="-189.17" y="-226.12" width="1241.21" height="2207.7"/></clipPath><clipPath id="clip-path-3" transform="translate(13.75 14.29)"><rect class="cls-1" x="2.8" y="2.26" width="691.77" height="172.11"/></clipPath><clipPath id="clip-path-5" transform="translate(13.75 14.29)"><path class="cls-2" d="M720.82,121.18c-1.2-.49-2.89-1.19-3.4-2.72s-.08-4.84.17-6.11L724.72,72,748.94,121c.4.89.74,1.13,1.19.17l22.69-49.57,7.31,43.88c.26,1.44.75,3.79-1.66,5.69-.89.7-.3,1.44.68,1.19a46.67,46.67,0,0,1,5.78-.6,42,42,0,0,1,7.34.5c1.36.3,1.61-.85.84-1.1-1.45-.49-4.59-.93-5.26-4.88l-8.54-50.58c-.51-3.57,1.61-5.31,4.86-5.63.93-.09,1-1.5-.45-1.33-2,.23-5.47.3-6.75.3s-4.16-.26-5.09-.35-1.28.52-.86,1.53a5.93,5.93,0,0,1-.38,4.12L750.9,108.28,729.54,64.7c-.66-1.32-1.08-3.65-.66-4.62.32-.75,0-1.45-.93-1.28a49.67,49.67,0,0,1-5.44.26c-1.53,0-6.37-.18-7.31-.26S714,60,714.83,60.13c2.09.45,3.69,1,4.75,2.1a4.48,4.48,0,0,1,1.31,4l-9,48.89c-.57,2.66-1.31,5-5.18,6.12a.68.68,0,0,0,.34,1.31,31.71,31.71,0,0,1,7-.65,34.74,34.74,0,0,1,6.45.65.69.69,0,0,0,.35-1.33"/></clipPath><clipPath id="clip-path-7" transform="translate(13.75 14.29)"><path class="cls-2" d="M855.68,59.7h.82c.49,0,.71.21.71.6a.57.57,0,0,1-.56.57l.65,1h-.21l-.65-1h-.57v1h-.19Zm.19,1h.46c.33,0,.69,0,.69-.41s-.29-.43-.55-.43h-.6Zm-1.17.08a1.65,1.65,0,1,0,3.3,0,1.65,1.65,0,1,0-3.3,0Zm3.49,0a1.84,1.84,0,1,1-1.84-1.84A1.84,1.84,0,0,1,858.19,60.79Z"/></clipPath><clipPath id="clip-path-9" transform="translate(13.75 14.29)"><polygon class="cls-2" points="54.14 59.53 59.55 59.53 83.5 116.56 83.67 116.56 107.37 59.53 112.78 59.53 112.78 120.76 109 120.76 109 64.16 108.83 64.16 85.48 120.76 81.7 120.76 58.09 64.16 57.92 64.16 57.92 120.76 54.14 120.76 54.14 59.53"/></clipPath><clipPath id="clip-path-11" transform="translate(13.75 14.29)"><path class="cls-2" d="M122,68.37h3.26V59.53H122Zm0,52.4h3.26V76.68H122Z"/></clipPath><clipPath id="clip-path-13" transform="translate(13.75 14.29)"><path class="cls-2" d="M134.65,77h3.28v9.15h.17a13.57,13.57,0,0,1,2.46-4.29,16.16,16.16,0,0,1,3.71-3.2,16.68,16.68,0,0,1,4.62-2A19.75,19.75,0,0,1,154,76a20.84,20.84,0,0,1,6.6.91A13.08,13.08,0,0,1,165,79.34a11.77,11.77,0,0,1,2.72,3.37,15.31,15.31,0,0,1,1.42,3.79,21.53,21.53,0,0,1,.52,3.7q.09,1.79.09,3.12v26.46h-3.28v-27a38.89,38.89,0,0,0-.26-4,11.86,11.86,0,0,0-1.51-4.62,10.78,10.78,0,0,0-3.8-3.79,13.3,13.3,0,0,0-7-1.58,16.13,16.13,0,0,0-6.73,1.33,14.53,14.53,0,0,0-5,3.7A16.14,16.14,0,0,0,139,89.45a23,23,0,0,0-1.08,7.2v23.13h-3.28Z"/></clipPath><clipPath id="clip-path-15" transform="translate(13.75 14.29)"><path class="cls-2" d="M181,60.36v25.8h.17a13.57,13.57,0,0,1,2.46-4.29,16.16,16.16,0,0,1,3.71-3.2,16.66,16.66,0,0,1,4.62-2A19.75,19.75,0,0,1,197,76a20.84,20.84,0,0,1,6.6.91,13.1,13.1,0,0,1,4.44,2.41,11.75,11.75,0,0,1,2.72,3.37,15.28,15.28,0,0,1,1.42,3.79,21.75,21.75,0,0,1,.52,3.7q.08,1.79.09,3.12v26.46h-3.28v-27a38.85,38.85,0,0,0-.26-4,11.88,11.88,0,0,0-1.51-4.62,10.77,10.77,0,0,0-3.8-3.79,13.3,13.3,0,0,0-7-1.58,16.13,16.13,0,0,0-6.73,1.33,14.52,14.52,0,0,0-5,3.7,16.12,16.12,0,0,0-3.15,5.66,23,23,0,0,0-1.08,7.2v23.13H177.7V60.36Z"/></clipPath><clipPath id="clip-path-17" transform="translate(13.75 14.29)"><path class="cls-2" d="M250.17,111.29H250a13.11,13.11,0,0,1-2.24,3.62,15.74,15.74,0,0,1-3.58,3,18.1,18.1,0,0,1-4.79,2.08,21.72,21.72,0,0,1-5.87.75q-7.08,0-11-3t-3.88-9.11a11,11,0,0,1,1.55-6.12,11.58,11.58,0,0,1,3.93-3.74,17.2,17.2,0,0,1,5.26-2,53.37,53.37,0,0,1,5.57-.83l5.09-.42a31,31,0,0,0,5.56-.79,7.19,7.19,0,0,0,3.06-1.5A4.21,4.21,0,0,0,250,90.91a22.61,22.61,0,0,0,.26-3.74,7.66,7.66,0,0,0-.69-3.25,7.33,7.33,0,0,0-2.16-2.66,10.83,10.83,0,0,0-3.8-1.83,21,21,0,0,0-5.69-.67q-6,0-9.62,2.83t-4,8.57H221q.34-7.07,4.7-10.61T238.09,76q8,0,11.69,3A9.83,9.83,0,0,1,253.44,87v24.88q0,.92,0,1.83a5.92,5.92,0,0,0,.3,1.66,2.5,2.5,0,0,0,.86,1.21,2.8,2.8,0,0,0,1.73.46,16.2,16.2,0,0,0,2.42-.25v2.66a10.67,10.67,0,0,1-2.67.33,8.15,8.15,0,0,1-3.15-.5A4.12,4.12,0,0,1,251.2,118a4.82,4.82,0,0,1-.82-2,13,13,0,0,1-.22-2.46Zm0-15.81a6.29,6.29,0,0,1-3.67,1.91,47.07,47.07,0,0,1-5.48.75l-5.52.5q-2.42.25-4.83.71a14.41,14.41,0,0,0-4.36,1.54,8.24,8.24,0,0,0-4.36,7.82q0,4.74,3.11,7T233.6,118q5.61,0,8.89-2a15.51,15.51,0,0,0,5-4.49,13.57,13.57,0,0,0,2.2-4.91,20.25,20.25,0,0,0,.47-3.2Z"/></clipPath><clipPath id="clip-path-19" transform="translate(13.75 14.29)"><path class="cls-2" d="M289.85,60.36l24.07,59.42h-9.06l-6.73-17.89H272.08l-6.9,17.89h-8.37l24-59.42Zm5.69,34.87L285.28,67.52h-.17L274.67,95.23Z"/></clipPath><clipPath id="clip-path-21" transform="translate(13.75 14.29)"><path class="cls-2" d="M322.63,110.17a7.66,7.66,0,0,0,2.72,2.58,12.45,12.45,0,0,0,3.8,1.37,22.38,22.38,0,0,0,4.36.42,27.72,27.72,0,0,0,3.62-.25,13.64,13.64,0,0,0,3.49-.91,6.52,6.52,0,0,0,2.63-2,5.08,5.08,0,0,0,1-3.29,4.66,4.66,0,0,0-2.16-4.16,18.71,18.71,0,0,0-5.39-2.29q-3.24-.87-7-1.58a37.3,37.3,0,0,1-7-2,14.53,14.53,0,0,1-5.39-3.62A9.19,9.19,0,0,1,315.13,88a10,10,0,0,1,1.51-5.58,12.12,12.12,0,0,1,3.88-3.79,18.22,18.22,0,0,1,5.35-2.16,25.53,25.53,0,0,1,5.91-.71,36.52,36.52,0,0,1,7,.62,16.53,16.53,0,0,1,5.65,2.16,11.37,11.37,0,0,1,3.93,4.16,15.39,15.39,0,0,1,1.73,6.53h-7.33a7,7,0,0,0-1.12-3.45,7.25,7.25,0,0,0-2.42-2.2A11.26,11.26,0,0,0,336,82.38a17.24,17.24,0,0,0-3.58-.37,22.65,22.65,0,0,0-3.32.25,11.52,11.52,0,0,0-3.06.87,6.13,6.13,0,0,0-2.24,1.66,4.1,4.1,0,0,0-.86,2.7,3.91,3.91,0,0,0,1.34,3,10.74,10.74,0,0,0,3.41,2,30.52,30.52,0,0,0,4.66,1.33q2.59.54,5.18,1.12,2.76.58,5.39,1.41a17.87,17.87,0,0,1,4.66,2.21,10.94,10.94,0,0,1,3.28,3.45,9.87,9.87,0,0,1,1.25,5.16,11.65,11.65,0,0,1-1.68,6.49,12.93,12.93,0,0,1-4.4,4.16,18.8,18.8,0,0,1-6.13,2.21,37.57,37.57,0,0,1-6.77.62,32.42,32.42,0,0,1-7.07-.75,17.69,17.69,0,0,1-6-2.45,12.67,12.67,0,0,1-4.14-4.49,15.12,15.12,0,0,1-1.73-6.78h7.33a7.73,7.73,0,0,0,1.12,4"/></clipPath><clipPath id="clip-path-23" transform="translate(13.75 14.29)"><path class="cls-2" d="M364,110.17a7.66,7.66,0,0,0,2.72,2.58,12.45,12.45,0,0,0,3.8,1.37,22.38,22.38,0,0,0,4.36.42,27.72,27.72,0,0,0,3.62-.25,13.64,13.64,0,0,0,3.49-.91,6.52,6.52,0,0,0,2.63-2,5.08,5.08,0,0,0,1-3.29,4.66,4.66,0,0,0-2.16-4.16,18.71,18.71,0,0,0-5.39-2.29q-3.24-.87-7-1.58a37.29,37.29,0,0,1-7-2,14.53,14.53,0,0,1-5.39-3.62A9.19,9.19,0,0,1,356.54,88,10,10,0,0,1,358,82.42a12.12,12.12,0,0,1,3.88-3.79,18.22,18.22,0,0,1,5.35-2.16,25.53,25.53,0,0,1,5.91-.71,36.52,36.52,0,0,1,7,.62,16.53,16.53,0,0,1,5.65,2.16,11.37,11.37,0,0,1,3.93,4.16,15.39,15.39,0,0,1,1.73,6.53h-7.33A7,7,0,0,0,383,85.79a7.25,7.25,0,0,0-2.42-2.2,11.27,11.27,0,0,0-3.24-1.21,17.24,17.24,0,0,0-3.58-.37,22.66,22.66,0,0,0-3.32.25,11.53,11.53,0,0,0-3.06.87,6.14,6.14,0,0,0-2.24,1.66,4.1,4.1,0,0,0-.86,2.7,3.91,3.91,0,0,0,1.34,3,10.74,10.74,0,0,0,3.41,2,30.53,30.53,0,0,0,4.66,1.33q2.59.54,5.18,1.12,2.76.58,5.39,1.41a17.86,17.86,0,0,1,4.66,2.21,10.93,10.93,0,0,1,3.28,3.45,9.86,9.86,0,0,1,1.25,5.16,11.65,11.65,0,0,1-1.68,6.49,12.93,12.93,0,0,1-4.4,4.16,18.81,18.81,0,0,1-6.13,2.21,37.58,37.58,0,0,1-6.77.62,32.42,32.42,0,0,1-7.07-.75,17.7,17.7,0,0,1-6-2.45,12.67,12.67,0,0,1-4.14-4.49,15.12,15.12,0,0,1-1.73-6.78h7.33a7.73,7.73,0,0,0,1.12,4"/></clipPath><clipPath id="clip-path-25" transform="translate(13.75 14.29)"><rect class="cls-1" x="-0.51" y="-7.67" width="878.15" height="202.35"/></clipPath><clipPath id="clip-path-27" transform="translate(13.75 14.29)"><rect class="cls-1" x="-33.61" y="-30.84" width="774.52" height="241.62"/></clipPath><clipPath id="clip-path-28" transform="translate(13.75 14.29)"><path class="cls-2" d="M400.28,69h7.33V60.36h-7.33Zm0,50.76h7.33v-43h-7.33Z"/></clipPath><clipPath id="clip-path-29" transform="translate(13.75 14.29)"><rect class="cls-1" x="-0.51" y="-1.05" width="873.81" height="182.04"/></clipPath><clipPath id="clip-path-30" transform="translate(13.75 14.29)"><path class="cls-2" d="M422.88,110.17a7.66,7.66,0,0,0,2.72,2.58,12.45,12.45,0,0,0,3.8,1.37,22.38,22.38,0,0,0,4.36.42,27.72,27.72,0,0,0,3.62-.25,13.64,13.64,0,0,0,3.49-.91,6.52,6.52,0,0,0,2.63-2,5.08,5.08,0,0,0,1-3.29,4.66,4.66,0,0,0-2.16-4.16,18.7,18.7,0,0,0-5.39-2.29q-3.23-.87-7-1.58a37.3,37.3,0,0,1-7-2,14.54,14.54,0,0,1-5.39-3.62A9.19,9.19,0,0,1,415.38,88a10,10,0,0,1,1.51-5.58,12.12,12.12,0,0,1,3.88-3.79,18.21,18.21,0,0,1,5.35-2.16,25.53,25.53,0,0,1,5.91-.71,36.54,36.54,0,0,1,7,.62,16.54,16.54,0,0,1,5.65,2.16,11.39,11.39,0,0,1,3.93,4.16,15.39,15.39,0,0,1,1.72,6.53H443a7,7,0,0,0-1.12-3.45,7.24,7.24,0,0,0-2.42-2.2,11.25,11.25,0,0,0-3.24-1.21,17.24,17.24,0,0,0-3.58-.37,22.65,22.65,0,0,0-3.32.25,11.52,11.52,0,0,0-3.06.87A6.13,6.13,0,0,0,424,84.79a4.1,4.1,0,0,0-.86,2.7,3.91,3.91,0,0,0,1.34,3,10.74,10.74,0,0,0,3.41,2,30.53,30.53,0,0,0,4.66,1.33q2.59.54,5.18,1.12,2.76.58,5.39,1.41a17.88,17.88,0,0,1,4.66,2.21,10.92,10.92,0,0,1,3.28,3.45,9.87,9.87,0,0,1,1.25,5.16,11.65,11.65,0,0,1-1.68,6.49,12.93,12.93,0,0,1-4.4,4.16,18.81,18.81,0,0,1-6.12,2.21,37.59,37.59,0,0,1-6.77.62,32.42,32.42,0,0,1-7.07-.75,17.7,17.7,0,0,1-6-2.45,12.66,12.66,0,0,1-4.14-4.49,15.12,15.12,0,0,1-1.73-6.78h7.33a7.73,7.73,0,0,0,1.12,4"/></clipPath><clipPath id="clip-path-32" transform="translate(13.75 14.29)"><path class="cls-2" d="M477.75,76.76V83h-8.88v26.71a7.36,7.36,0,0,0,.22,2,2,2,0,0,0,.82,1.17,3.71,3.71,0,0,0,1.68.54,25.27,25.27,0,0,0,2.8.12h3.36v6.24h-5.61a27.29,27.29,0,0,1-4.87-.37A7.29,7.29,0,0,1,464,118a5.85,5.85,0,0,1-1.85-2.83,15.76,15.76,0,0,1-.6-4.83V83h-7.59V76.76h7.59V63.86h7.33v12.9Z"/></clipPath><clipPath id="clip-path-34" transform="translate(13.75 14.29)"><path class="cls-2" d="M515.71,117q-5,3.66-12.6,3.66a23.65,23.65,0,0,1-9.27-1.66,18.24,18.24,0,0,1-6.6-4.66,19.58,19.58,0,0,1-4-7.16,33.32,33.32,0,0,1-1.51-9.07,25.05,25.05,0,0,1,1.55-9,21.34,21.34,0,0,1,4.36-7.07,19.78,19.78,0,0,1,6.64-4.66,20.92,20.92,0,0,1,8.41-1.66,18.83,18.83,0,0,1,9.88,2.37,19.23,19.23,0,0,1,6.3,6,23.37,23.37,0,0,1,3.28,8,33.1,33.1,0,0,1,.73,8.24H489.48a16.48,16.48,0,0,0,.69,5.37,12,12,0,0,0,2.5,4.49,12.32,12.32,0,0,0,4.4,3.12,15.65,15.65,0,0,0,6.3,1.17,13,13,0,0,0,7.64-2.08,10,10,0,0,0,3.93-6.33h7.25q-1.47,7.24-6.47,10.9m-1.77-27.63a12.11,12.11,0,0,0-2.68-3.87,12.75,12.75,0,0,0-4-2.58,13,13,0,0,0-5-1,13.19,13.19,0,0,0-5.13,1,11.89,11.89,0,0,0-3.93,2.62,12.5,12.5,0,0,0-2.59,3.87,14.28,14.28,0,0,0-1.12,4.7h25.62a14.06,14.06,0,0,0-1.16-4.74"/></clipPath><clipPath id="clip-path-36" transform="translate(13.75 14.29)"><path class="cls-2" d="M535.64,76.76v6.82h.17q4.57-7.82,14.49-7.82a20,20,0,0,1,7.33,1.17,12.08,12.08,0,0,1,4.75,3.25,11.9,11.9,0,0,1,2.55,5,25.76,25.76,0,0,1,.73,6.37v28.29h-7.33V90.66a8.38,8.38,0,0,0-2.42-6.32A9.18,9.18,0,0,0,549.27,82a15.43,15.43,0,0,0-5.82,1,10.91,10.91,0,0,0-4.1,2.83,12.08,12.08,0,0,0-2.46,4.29,16.85,16.85,0,0,0-.82,5.37v24.3h-7.33v-43Z"/></clipPath><clipPath id="clip-path-38" transform="translate(13.75 14.29)"><path class="cls-2" d="M594,76.76V83h-8.89v26.71a7.41,7.41,0,0,0,.22,2,2.05,2.05,0,0,0,.82,1.17,3.71,3.71,0,0,0,1.68.54,25.29,25.29,0,0,0,2.8.12H594v6.24h-5.61a27.29,27.29,0,0,1-4.87-.37,7.29,7.29,0,0,1-3.28-1.37,5.85,5.85,0,0,1-1.85-2.83,15.79,15.79,0,0,1-.6-4.83V83h-7.59V76.76h7.59V63.86h7.33v12.9Z"/></clipPath><clipPath id="clip-path-40" transform="translate(13.75 14.29)"><path class="cls-2" d="M632,117q-5,3.66-12.6,3.66a23.65,23.65,0,0,1-9.27-1.66,18.25,18.25,0,0,1-6.6-4.66,19.59,19.59,0,0,1-4-7.16A33.34,33.34,0,0,1,598,98.15a25,25,0,0,1,1.55-9,21.34,21.34,0,0,1,4.36-7.07,19.78,19.78,0,0,1,6.64-4.66A20.92,20.92,0,0,1,619,75.76a18.83,18.83,0,0,1,9.88,2.37,19.23,19.23,0,0,1,6.3,6,23.37,23.37,0,0,1,3.28,8,33.09,33.09,0,0,1,.73,8.24H605.78a16.49,16.49,0,0,0,.69,5.37,12,12,0,0,0,2.5,4.49,12.32,12.32,0,0,0,4.4,3.12,15.65,15.65,0,0,0,6.3,1.17,13,13,0,0,0,7.64-2.08,10,10,0,0,0,3.93-6.33h7.25Q637,113.37,632,117m-1.77-27.63a12.11,12.11,0,0,0-2.68-3.87,12.75,12.75,0,0,0-4-2.58,13,13,0,0,0-5-1,13.19,13.19,0,0,0-5.13,1,11.89,11.89,0,0,0-3.93,2.62,12.5,12.5,0,0,0-2.59,3.87,14.28,14.28,0,0,0-1.12,4.7H631.4a14.08,14.08,0,0,0-1.16-4.74"/></clipPath><clipPath id="clip-path-43" transform="translate(13.75 14.29)"><path class="cls-2" d="M807.77,59.25c2,0,5.54-.19,6.9-.36a.67.67,0,1,1,.12,1.33A3.55,3.55,0,0,0,811.68,64v52.08c0,1.61.36,4.25,3.44,5a.67.67,0,0,1-.16,1.33,35.61,35.61,0,0,0-6.94-.62,63.47,63.47,0,0,0-7.27.45.68.68,0,1,1-.27-1.32,4.64,4.64,0,0,0,3.91-4.89c0-3,0-50.58,0-52.28,0-2.28-2.46-3.32-3.26-3.54a.67.67,0,0,1,.23-1.31c1.36.12,4.22.36,6.44.36"/></clipPath><clipPath id="clip-path-45" transform="translate(13.75 14.29)"><path class="cls-2" d="M860,121.84c-1.18-.44-2.48-.74-3.61-1.17a1.78,1.78,0,0,1-.28-.14,8.07,8.07,0,0,1-3.66-1,24.7,24.7,0,0,1-6.39-5.54l-25-29.25L838.61,66.3a20.78,20.78,0,0,1,10.62-6.07.67.67,0,1,0-.18-1.33,45.49,45.49,0,0,1-5.52.36,31,31,0,0,1-5.18-.34c-1.11-.17-1.11.6-1,1.19s0,1.86-1.6,3.56L814.05,86.5c-.3.25-.47.47-.09.84l14.1,16c1.57,1.77,11.48,13.5,18.36,17a19.29,19.29,0,0,0,10.2,2.21c.9-.05,2-.11,3.2-.15a1.55,1.55,0,0,1,.17-.5"/></clipPath></defs><title>logo-mamk-preto</title><g class="cls-3"><g class="cls-4"><rect class="cls-5" x="708.79" y="16.79" width="173.66" height="173.5"/></g></g><g class="cls-6"><g class="cls-4"><rect class="cls-7" width="724.87" height="205.21"/></g></g><g class="cls-8"><g class="cls-4"><rect class="cls-9" x="703.43" y="56.44" width="120.41" height="96.93"/></g></g><g class="cls-10"><g class="cls-4"><rect class="cls-9" x="851.71" y="56.68" width="36.78" height="36.78"/></g></g><g class="cls-11"><g class="cls-4"><rect class="cls-5" x="51.34" y="57.27" width="91.73" height="94.33"/></g></g><g class="cls-12"><g class="cls-4"><rect class="cls-5" x="119.25" y="57.27" width="36.36" height="94.33"/></g></g><g class="cls-13"><g class="cls-4"><rect class="cls-5" x="131.85" y="73.75" width="68.21" height="76.87"/></g></g><g class="cls-14"><g class="cls-4"><rect class="cls-5" x="174.9" y="58.1" width="68.21" height="92.52"/></g></g><g class="cls-15"><g class="cls-4"><rect class="cls-5" x="215.88" y="73.75" width="73.22" height="77.87"/></g></g><g class="cls-16"><g class="cls-4"><rect class="cls-5" x="254.01" y="58.1" width="90.21" height="92.52"/></g></g><g class="cls-17"><g class="cls-4"><rect class="cls-5" x="311.38" y="73.5" width="70.97" height="78.04"/></g></g><g class="cls-18"><g class="cls-4"><rect class="cls-5" x="352.79" y="73.5" width="70.97" height="78.04"/></g></g><g class="cls-19"><g class="cls-4"><g class="cls-20"><g class="cls-21"><g class="cls-22"><g class="cls-23"><rect class="cls-5" x="397.48" y="58.1" width="40.43" height="92.52"/></g></g><g class="cls-24"><g class="cls-23"><rect class="cls-5" x="411.63" y="73.5" width="70.97" height="78.04"/></g></g><g class="cls-25"><g class="cls-23"><rect class="cls-5" x="451.14" y="61.6" width="56.91" height="89.02"/></g></g><g class="cls-26"><g class="cls-23"><rect class="cls-5" x="478.92" y="73.5" width="74.28" height="78.04"/></g></g><g class="cls-27"><g class="cls-23"><rect class="cls-5" x="525.94" y="73.5" width="70.02" height="77.12"/></g></g><g class="cls-28"><g class="cls-23"><rect class="cls-5" x="567.43" y="61.6" width="56.91" height="89.02"/></g></g><g class="cls-29"><g class="cls-23"><rect class="cls-5" x="595.21" y="73.5" width="74.28" height="78.04"/></g></g><g class="cls-23"><polygon class="cls-30" points="14.32 189.6 343.15 189.6 721.12 189.6 721.12 17.95 14.32 17.95 14.32 189.6"/></g></g></g></g></g><g class="cls-31"><g class="cls-4"><rect class="cls-9" x="797.07" y="56.62" width="48.91" height="96.64"/></g></g><g class="cls-32"><g class="cls-4"><rect class="cls-9" x="810.95" y="56.63" width="79.35" height="96.74"/></g></g></svg>